<?xml version="1.0" encoding="iso-8859-1"?>
<!-- Generator: Adobe Illustrator 19.0.0, SVG Export Plug-In . SVG Version: 6.00 Build 0)  -->
<svg version="1.1" id="Layer_1" xmlns="http://www.w3.org/2000/svg" xmlns:xlink="http://www.w3.org/1999/xlink" x="0px" y="0px"
	 viewBox="0 0 491.631 491.631" style="enable-background:new 0 0 491.631 491.631;" xml:space="preserve">
<path style="fill:#3A556A;" d="M481.984,119.031l-142.9-38.6c-5.6-1.5-11.4,1.8-12.9,7.4l-54.3,200.6c-1.5,5.6,1.8,11.4,7.4,12.9
	l142.9,38.7c5.6,1.5,11.4-1.8,12.9-7.4l54.3-200.6C490.884,126.331,487.584,120.531,481.984,119.031z"/>
<path style="fill:#64798A;" d="M483.284,114.131l-142.9-38.6c-5.6-1.5-11.4,1.8-12.9,7.4l-54.3,200.6c-1.5,5.6,1.8,11.4,7.4,12.9
	l142.9,38.7c5.6,1.5,11.4-1.8,12.9-7.4l54.3-200.6C492.184,121.431,488.884,115.631,483.284,114.131z"/>
<rect x="333.4" y="106.24" transform="matrix(0.9653 0.2611 -0.2611 0.9653 48.9266 -100.0897)" style="fill:#44C4A1;" width="135.498" height="55.699"/>
<rect x="327.172" y="153.436" transform="matrix(0.9653 0.2611 -0.2611 0.9653 54.7673 -97.6591)" style="fill:#3EA69B;" width="135.498" height="7.7"/>
<rect x="316.175" y="161.845" transform="matrix(0.2611 -0.9653 0.9653 0.2611 70.3148 478.0492)" style="fill:#FCD462;" width="62.499" height="62.499"/>
<rect x="386.63" y="180.911" transform="matrix(0.2611 -0.9653 0.9653 0.2611 103.9687 560.1487)" style="fill:#27A2DB;" width="62.499" height="62.499"/>
<rect x="336.117" y="187.701" transform="matrix(0.2611 -0.9653 0.9653 0.2611 40.2149 490.4379)" style="fill:#F6C358;" width="8.7" height="62.499"/>
<rect x="406.562" y="206.775" transform="matrix(0.2611 -0.9653 0.9653 0.2611 73.8538 572.5337)" style="fill:#2D93BA;" width="8.7" height="62.499"/>
<rect x="297.098" y="232.293" transform="matrix(0.2611 -0.9653 0.9653 0.2611 -11.7853 511.6883)" style="fill:#E56353;" width="62.499" height="62.499"/>
<rect x="367.553" y="251.366" transform="matrix(0.2611 -0.9653 0.9653 0.2611 21.8618 593.793)" style="fill:#EBF0F3;" width="62.499" height="62.499"/>
<rect x="317.014" y="258.25" transform="matrix(0.2611 -0.9653 0.9653 0.2611 -42.0025 524.1269)" style="fill:#D15241;" width="8.7" height="62.499"/>
<g transform="matrix(-0.2611 0.9653 -0.9653 -0.2611 647.85 -89.39)">
	<rect x="348.481" y="197.699" style="fill:#DC8744;" width="5.2" height="37.1"/>
	<rect x="332.581" y="213.599" style="fill:#DC8744;" width="37.1" height="5.2"/>
</g>
<g>
	
		<rect x="325.737" y="245.003" transform="matrix(0.8672 -0.4979 0.4979 0.8672 -87.6321 198.4767)" style="fill:#FFFFFF;" width="5.2" height="37.099"/>
	
		<rect x="309.856" y="260.971" transform="matrix(0.8672 -0.4979 0.4979 0.8672 -87.6322 198.5131)" style="fill:#FFFFFF;" width="37.099" height="5.2"/>
</g>
<g>
	
		<rect x="398.864" y="254.542" transform="matrix(0.2611 -0.9653 0.9653 0.2611 33.0216 589.3245)" style="fill:#64798A;" width="5.2" height="37.1"/>
	
		<rect x="393.638" y="273.614" transform="matrix(0.2611 -0.9653 0.9653 0.2611 10.7501 598.3724)" style="fill:#64798A;" width="5.2" height="37.1"/>
</g>
<rect x="415.389" y="193.589" transform="matrix(0.2611 -0.9653 0.9653 0.2611 104.0711 560.2382)" style="fill:#FFFFFF;" width="5.2" height="37.1"/>
<rect x="387.469" y="277.322" transform="matrix(0.2611 -0.9653 0.9653 0.2611 -8.3534 606.23)" style="fill:#E1E6E9;" width="8.7" height="62.499"/>
<path style="fill:#FCD462;" d="M227.584,150.731c-15.9-21.9-22.7-47.3-20.8-72.8c1.5-20.1,7.8-39.4,14.3-58.3
	c1.1-3.4,2.1-6.9,2.2-10.5c0.1-2.9-3.2-4.5-5.5-2.9c-1.8,1.2-3.6,2.3-5.5,3.1c-3.8,1.6-8.1,2.3-12,1c-6.2-2.1-10.2-8.8-16.6-10.1
	c-5.3-1.1-10.5,1.9-14.5,5.5c-3.9,3.7-7.1,8.1-11.5,11.3c-5.2,3.8-11.8,5.3-18.2,5c-2.9-0.1-5.9-0.6-8.3-2.4
	c-3.1-2.3-4.5-6.3-7.6-8.6c-5.1-3.8-12.4-1.3-17.9,1.9s-11.4,7.2-17.7,6c-2.8-0.5-5.1-2-7.1-3.9c-2.5-2.4-6.6-0.3-5.9,3.1
	c3.2,17.3,12.3,34,12.2,51.8l0.3,0.2c0.1,2.6,0.3,5.3,0.5,7.9c1.9,25.4-5,50.8-20.8,72.8c-40.7,56.2-66.6,115-66.6,167
	c0,57.4,65.2,113.8,146.8,113.8s146.8-56.4,146.8-113.8C294.184,260.931,268.284,206.931,227.584,150.731z"/>
<g>
	<path style="fill:#DC8744;" d="M326.084,122.631c-42.7-36.1-119.4-30.9-119.4-30.9h-6.2h-112.5c-0.6,11-2.7,21.9-6.6,32.4h119.1
		h12.8c59.3-1.9,97.1,23.8,97.1,23.8l-10.9-22.1L326.084,122.631z"/>
	<path style="fill:#DC8744;" d="M143.584,351.031v-12.6c-15.8-1.6-30-7.9-42.5-18.8l12.6-15c9.7,8.4,19.6,13.4,29.9,15v-33.5
		c-13-3.1-22.6-7.2-28.6-12.3s-9.1-12.6-9.1-22.6s3.5-18.1,10.5-24.5c7-6.3,16-9.8,27.2-10.4v-8.6h11.1v8.8c12.7,0.9,24.7,5.2,36,13
		l-11.4,15.9c-7.6-5.4-15.8-8.8-24.7-10v32.4h0.5c13.3,3.1,23,7.3,29.2,12.6c6.2,5.3,9.3,13,9.3,23.1s-3.6,18.3-10.7,24.6
		c-7.1,6.3-16.6,9.8-28.3,10.4v12.4h-11V351.031z M131.384,239.431c-2.9,2.6-4.4,5.8-4.4,9.7c0,3.9,1.1,6.9,3.5,9.2
		c2.3,2.2,6.7,4.4,13.1,6.5v-30C138.384,235.331,134.284,236.831,131.384,239.431z M167.784,315.231c3.2-2.7,4.8-6,4.8-10
		s-1.3-7.2-3.8-9.6s-7.3-4.6-14.2-6.7v31.1C160.084,319.531,164.484,317.931,167.784,315.231z"/>
</g>
<rect x="134.684" y="470.831" style="fill:#31978C;" width="240" height="20.8"/>
<rect x="134.684" y="374.031" style="fill:#3EA69B;" width="240" height="100.3"/>
<path style="fill:#44C4A1;" d="M357.184,381.631h-205.1c0,4.2-3.9,7.5-8.7,7.5v70.1c4.8,0,8.7,3.4,8.7,7.5h205.1
	c0-4.2,3.9-7.5,8.7-7.5v-70.1C361.084,389.131,357.184,385.731,357.184,381.631z"/>
<g>
	<ellipse style="fill:#3EA69B;" cx="254.584" cy="424.231" rx="26" ry="32"/>
	<ellipse style="fill:#3EA69B;" cx="343.584" cy="424.231" rx="7.2" ry="6.2"/>
	<ellipse style="fill:#3EA69B;" cx="165.684" cy="424.231" rx="7.2" ry="6.2"/>
</g>
<rect x="134.684" y="447.431" style="fill:#31978C;" width="240" height="20.8"/>
<rect x="134.684" y="350.731" style="fill:#3EA69B;" width="240" height="100.3"/>
<path style="fill:#44C4A1;" d="M357.184,358.231h-205.1c0,4.2-3.9,7.5-8.7,7.5v70.1c4.8,0,8.7,3.4,8.7,7.5h205.1
	c0-4.2,3.9-7.5,8.7-7.5v-70C361.084,365.831,357.184,362.431,357.184,358.231z"/>
<g>
	<ellipse style="fill:#3EA69B;" cx="254.584" cy="400.831" rx="26" ry="32"/>
	<ellipse style="fill:#3EA69B;" cx="343.584" cy="400.831" rx="7.2" ry="6.2"/>
	<ellipse style="fill:#3EA69B;" cx="165.684" cy="400.831" rx="7.2" ry="6.2"/>
</g>
<rect x="134.684" y="424.031" style="fill:#31978C;" width="240" height="20.8"/>
<rect x="134.684" y="327.331" style="fill:#3EA69B;" width="240" height="100.3"/>
<path style="fill:#44C4A1;" d="M357.184,334.831h-205.1c0,4.2-3.9,7.5-8.7,7.5v70.1c4.8,0,8.7,3.4,8.7,7.5h205.1
	c0-4.2,3.9-7.5,8.7-7.5v-70.1C361.084,342.431,357.184,339.031,357.184,334.831z"/>
<g>
	<ellipse style="fill:#3EA69B;" cx="254.584" cy="377.431" rx="26" ry="32"/>
	<ellipse style="fill:#3EA69B;" cx="343.584" cy="377.431" rx="7.2" ry="6.2"/>
	<ellipse style="fill:#3EA69B;" cx="165.684" cy="377.431" rx="7.2" ry="6.2"/>
</g>
<rect x="134.684" y="400.631" style="fill:#31978C;" width="240" height="20.8"/>
<rect x="134.684" y="303.931" style="fill:#3EA69B;" width="240" height="100.3"/>
<path style="fill:#44C4A1;" d="M357.184,311.531h-205.1c0,4.2-3.9,7.5-8.7,7.5v70.1c4.8,0,8.7,3.4,8.7,7.5h205.1
	c0-4.2,3.9-7.5,8.7-7.5v-70.1C361.084,319.031,357.184,315.631,357.184,311.531z"/>
<g>
	<ellipse style="fill:#3EA69B;" cx="254.584" cy="354.131" rx="26" ry="32"/>
	<ellipse style="fill:#3EA69B;" cx="343.584" cy="354.131" rx="7.2" ry="6.2"/>
	<ellipse style="fill:#3EA69B;" cx="165.684" cy="354.131" rx="7.2" ry="6.2"/>
</g>
<rect x="134.684" y="377.331" style="fill:#31978C;" width="240" height="20.8"/>
<rect x="134.684" y="280.631" style="fill:#3EA69B;" width="240" height="100.3"/>
<path style="fill:#44C4A1;" d="M357.184,288.131h-205.1c0,4.2-3.9,7.5-8.7,7.5v70.2c4.8,0,8.7,3.4,8.7,7.5h205.1
	c0-4.2,3.9-7.5,8.7-7.5v-70.1C361.084,295.731,357.184,292.331,357.184,288.131z"/>
<g>
	<ellipse style="fill:#3EA69B;" cx="254.584" cy="330.731" rx="26" ry="32"/>
	<ellipse style="fill:#3EA69B;" cx="343.584" cy="330.731" rx="7.2" ry="6.2"/>
	<ellipse style="fill:#3EA69B;" cx="165.684" cy="330.731" rx="7.2" ry="6.2"/>
</g>
<rect x="231.484" y="380.831" style="fill:#FFFFFF;" width="46.2" height="110.7"/>
<g>
	<rect x="235.184" y="380.831" style="fill:#FCD462;" width="2.5" height="110.7"/>
	<rect x="271.484" y="380.831" style="fill:#FCD462;" width="2.5" height="110.7"/>
</g>
<g>
</g>
<g>
</g>
<g>
</g>
<g>
</g>
<g>
</g>
<g>
</g>
<g>
</g>
<g>
</g>
<g>
</g>
<g>
</g>
<g>
</g>
<g>
</g>
<g>
</g>
<g>
</g>
<g>
</g>
</svg>
